<svg width="192" height="42" viewBox="0 0 192 42" fill="none" xmlns="http://www.w3.org/2000/svg">
<path d="M17.336 0L15.1072 2.50622L16.6607 3.54698L19.9286 4.89982L17.336 0Z" fill="url(#paint0_linear_6_41)"/>
<path d="M13.0714 5.31608L11.0893 7.81375L14.3035 10.9878L25.3928 14.942L22.8215 10.3109L15.268 7.2414L13.0714 5.31608Z" fill="url(#paint1_linear_6_41)"/>
<path d="M9.10712 10.1032C8.60713 10.7276 8.10715 11.3521 7.60716 11.9765L12.2143 18.4286L29.5178 23.3199L27.4286 19.4173L13.0714 14.8384L9.10712 10.1032Z" fill="url(#paint2_linear_6_41)"/>
<path d="M6.42861 13.6415L5.19639 14.942L10.3393 24.4121L32.1429 29.0431L30.4819 25.9211L11.0889 21.2381C9.53552 18.706 7.98211 16.1738 6.42861 13.6415Z" fill="url(#paint3_linear_6_41)"/>
<path d="M4.01787 16.3473L2.94647 17.7002L8.89285 31.3851L27.8568 34.0388L33 32.2697L9.80354 28.107L4.01787 16.3473Z" fill="url(#paint4_linear_6_41)"/>
<path d="M2.03577 18.7409C1.76781 19.0877 1.49993 19.4346 1.23211 19.7816L7.33931 37.317L16.875 38.1495L22.7679 35.9121L8.19643 34.2988C6.14288 29.1129 4.08933 23.9269 2.03577 18.7409Z" fill="url(#paint5_linear_6_41)"/>
<path d="M0.535699 20.8222L0 21.3946C2.03581 28.2631 4.0715 35.1316 6.10709 42L10.5536 40.439L6.69647 40.1268L0.535699 20.8222Z" fill="url(#paint6_linear_6_41)"/>
<path d="M52.9694 33.0559C51.1179 33.0559 49.618 32.5119 48.4696 31.4239C47.3446 30.3359 46.7822 28.8966 46.7822 27.1059V21.8359C46.7822 19.9546 47.3446 18.4359 48.4696 17.2799C49.618 16.1239 51.1179 15.5459 52.9694 15.5459H55.8521C57.6332 15.5459 59.0629 16.1126 60.1409 17.2459C61.2425 18.3566 61.7932 19.8412 61.7932 21.6999V24.5559H48.6805V27.1059C48.6805 28.3979 49.0672 29.4406 49.8406 30.2339C50.6375 31.0272 51.6804 31.4239 52.9694 31.4239H55.6411C56.9067 31.4239 57.9262 31.0726 58.6996 30.3699C59.4964 29.6446 59.8949 28.7039 59.8949 27.5479H61.7229C61.7229 29.2026 61.1604 30.5399 60.0355 31.5599C58.934 32.5572 57.4692 33.0559 55.6411 33.0559H52.9694ZM59.93 22.9919V21.6999C59.93 20.3399 59.555 19.2519 58.8051 18.4359C58.0551 17.5972 57.0708 17.1779 55.8521 17.1779H52.9694C51.6804 17.1779 50.6375 17.6086 49.8406 18.4699C49.0672 19.3312 48.6805 20.4532 48.6805 21.8359V22.9919H59.93Z" fill="white"/>
<path d="M68.2238 12.9279C67.755 12.9279 67.3683 12.7919 67.0637 12.5199C66.7824 12.2479 66.6418 11.8852 66.6418 11.4319C66.6418 10.9786 66.7824 10.6159 67.0637 10.3439C67.3683 10.0492 67.755 9.9019 68.2238 9.9019C68.6925 9.9019 69.0675 10.0492 69.3487 10.3439C69.63 10.6159 69.7706 10.9786 69.7706 11.4319C69.7706 11.8626 69.63 12.2252 69.3487 12.5199C69.0675 12.7919 68.6925 12.9279 68.2238 12.9279ZM67.2746 15.8179H69.1378V32.7839H67.2746V15.8179Z" fill="white"/>
<path d="M75.5335 15.8179H77.3615V18.7079C77.9474 17.7332 78.6857 16.9626 79.5763 16.3959C80.4903 15.8292 81.416 15.5459 82.3535 15.5459H84.7088C86.2322 15.5459 87.4626 16.0672 88.4001 17.1099C89.361 18.1299 89.8414 19.4899 89.8414 21.1899V32.7839H87.9782V21.1559C87.9782 19.9772 87.6735 19.0252 87.0642 18.2999C86.4548 17.5519 85.658 17.1779 84.6737 17.1779H82.3886C81.334 17.1779 80.3379 17.5972 79.4005 18.4359C78.463 19.2746 77.8068 20.3626 77.4318 21.6999V32.7839H75.5335V15.8179Z" fill="white"/>
<path d="M96.9627 17.4499H93.9394V15.8179H96.9627V14.3899C96.9627 10.6952 98.7908 8.8479 102.447 8.8479H103.431V10.4459H102.447C101.181 10.4459 100.267 10.7632 99.7048 11.3979C99.1423 12.0099 98.8611 13.0072 98.8611 14.3899V15.8179H103.044V17.4499H98.8611V32.7839H96.9627V17.4499Z" fill="white"/>
<path d="M112.192 33.0559C110.317 33.0559 108.805 32.4892 107.657 31.3559C106.508 30.1999 105.934 28.6926 105.934 26.8339V21.7679C105.934 19.9092 106.508 18.4132 107.657 17.2799C108.828 16.1239 110.364 15.5459 112.262 15.5459H115.039C116.937 15.5459 118.461 16.1239 119.609 17.2799C120.781 18.4132 121.367 19.9092 121.367 21.7679V26.8339C121.367 28.6926 120.781 30.1999 119.609 31.3559C118.437 32.4892 116.891 33.0559 114.969 33.0559H112.192ZM114.969 31.4239C116.328 31.4239 117.418 31.0046 118.238 30.1659C119.082 29.3272 119.504 28.2166 119.504 26.8339V21.7679C119.504 20.3852 119.094 19.2746 118.273 18.4359C117.453 17.5972 116.375 17.1779 115.039 17.1779H112.262C110.926 17.1779 109.848 17.5972 109.028 18.4359C108.231 19.2746 107.832 20.3852 107.832 21.7679V26.8339C107.832 28.2166 108.231 29.3272 109.028 30.1659C109.824 31.0046 110.879 31.4239 112.192 31.4239H114.969Z" fill="white"/>
<path d="M126.446 15.8179H128.274V18.7079C128.86 17.7332 129.598 16.9626 130.489 16.3959C131.403 15.8292 132.328 15.5459 133.266 15.5459H135.621C137.145 15.5459 138.375 16.0672 139.313 17.1099C140.273 18.1299 140.754 19.4899 140.754 21.1899V32.7839H138.891V21.1559C138.891 19.9772 138.586 19.0252 137.977 18.2999C137.367 17.5519 136.57 17.1779 135.586 17.1779H133.301C132.246 17.1779 131.25 17.5972 130.313 18.4359C129.376 19.2746 128.719 20.3626 128.344 21.6999V32.7839H126.446V15.8179Z" fill="white"/>
<path d="M151.808 33.0559C149.956 33.0559 148.456 32.5119 147.308 31.4239C146.183 30.3359 145.62 28.8966 145.62 27.1059V21.8359C145.62 19.9546 146.183 18.4359 147.308 17.2799C148.456 16.1239 149.956 15.5459 151.808 15.5459H154.69C156.471 15.5459 157.901 16.1126 158.979 17.2459C160.081 18.3566 160.631 19.8412 160.631 21.6999V24.5559H147.519V27.1059C147.519 28.3979 147.905 29.4406 148.679 30.2339C149.476 31.0272 150.519 31.4239 151.808 31.4239H154.479C155.745 31.4239 156.764 31.0726 157.538 30.3699C158.335 29.6446 158.733 28.7039 158.733 27.5479H160.561C160.561 29.2026 159.999 30.5399 158.874 31.5599C157.772 32.5572 156.307 33.0559 154.479 33.0559H151.808ZM158.768 22.9919V21.6999C158.768 20.3399 158.393 19.2519 157.643 18.4359C156.893 17.5972 155.909 17.1779 154.69 17.1779H151.808C150.519 17.1779 149.476 17.6086 148.679 18.4699C147.905 19.3312 147.519 20.4532 147.519 21.8359V22.9919H158.768Z" fill="white"/>
<path d="M171.953 32.7839C170.172 32.7839 168.895 32.4212 168.122 31.6959C167.348 30.9479 166.961 29.7239 166.961 28.0239V17.4499H163.868V15.8179H166.961V10.6839H168.825V15.8179H173.395V17.4499H168.825V28.0239C168.825 29.1346 169.059 29.9392 169.528 30.4379C169.996 30.9139 170.782 31.1519 171.883 31.1519H173.395V32.7839H171.953Z" fill="white"/>
<path d="M182.891 33.0559C181.227 33.0559 179.88 32.5912 178.849 31.6619C177.841 30.7099 177.337 29.4632 177.337 27.9219H179.165C179.165 28.9646 179.505 29.8146 180.185 30.4719C180.888 31.1292 181.79 31.4579 182.891 31.4579H185.915C187.063 31.4579 187.977 31.2312 188.657 30.7779C189.36 30.3246 189.711 29.7352 189.711 29.0099V27.6839C189.711 27.1852 189.512 26.7432 189.114 26.3579C188.739 25.9726 188.247 25.7232 187.637 25.6099L181.52 24.5899C180.372 24.4086 179.446 23.9892 178.743 23.3319C178.064 22.6519 177.724 21.8586 177.724 20.9519V19.7959C177.724 18.5266 178.204 17.5066 179.165 16.7359C180.149 15.9426 181.438 15.5459 183.032 15.5459H186.02C187.567 15.5459 188.809 15.9766 189.747 16.8379C190.707 17.6992 191.188 18.8326 191.188 20.2379H189.36C189.313 19.3086 188.985 18.5606 188.376 17.9939C187.79 17.4272 187.005 17.1439 186.02 17.1439H183.032C182.001 17.1439 181.169 17.3932 180.536 17.8919C179.903 18.3679 179.587 19.0026 179.587 19.7959V20.8839C179.587 21.4052 179.798 21.8699 180.22 22.2779C180.642 22.6632 181.192 22.9012 181.872 22.9919L187.989 24.0119C189.067 24.1932 189.934 24.6126 190.59 25.2699C191.247 25.9272 191.575 26.7092 191.575 27.6159V29.0439C191.575 30.2452 191.059 31.2199 190.028 31.9679C188.997 32.6932 187.626 33.0559 185.915 33.0559H182.891Z" fill="white"/>
<defs>
<linearGradient id="paint0_linear_6_41" x1="0" y1="21" x2="33" y2="21" gradientUnits="userSpaceOnUse">
<stop stop-color="#54C3BE"/>
<stop offset="1" stop-color="white"/>
</linearGradient>
<linearGradient id="paint1_linear_6_41" x1="0" y1="21.0009" x2="33" y2="21.0009" gradientUnits="userSpaceOnUse">
<stop stop-color="#51C3C0"/>
<stop offset="1" stop-color="#76CCC9"/>
</linearGradient>
<linearGradient id="paint2_linear_6_41" x1="0" y1="21" x2="33" y2="21" gradientUnits="userSpaceOnUse">
<stop stop-color="#50C3C4"/>
<stop offset="1" stop-color="#54C3C0"/>
</linearGradient>
<linearGradient id="paint3_linear_6_41" x1="0" y1="21.0006" x2="33" y2="21.0006" gradientUnits="userSpaceOnUse">
<stop stop-color="#27AEA5"/>
<stop offset="1" stop-color="#44BAB3"/>
</linearGradient>
<linearGradient id="paint4_linear_6_41" x1="0" y1="21" x2="33" y2="21" gradientUnits="userSpaceOnUse">
<stop stop-color="#208A87"/>
<stop offset="1" stop-color="#229892"/>
</linearGradient>
<linearGradient id="paint5_linear_6_41" x1="0.164174" y1="20.9999" x2="33.1642" y2="20.9999" gradientUnits="userSpaceOnUse">
<stop stop-color="#116A68"/>
<stop offset="1" stop-color="#12726D"/>
</linearGradient>
<linearGradient id="paint6_linear_6_41" x1="0" y1="21" x2="33" y2="21" gradientUnits="userSpaceOnUse">
<stop stop-color="#10524B"/>
<stop offset="1" stop-color="#125552"/>
</linearGradient>
</defs>
</svg>
